<svg xmlns="http://www.w3.org/2000/svg" viewBox="0 0 348 486">
  <defs>
    <mask id="maw17m4">
      <rect width="100%" height="100%" fill="black"></rect>
      <g transform="translate(0,486) scale(0.1,-0.1)">
        <path d="M1575 4760 c-86 -10 -247 -52 -335 -87 -210 -83 -361 -184 -536 -358 -197 -196 -319 -393 -414 -675 -127 -372 -126 -831 2 -1255 87 -289 242 -629 410 -899 105 -168 339 -500 412 -584 13 -15 73 -86 133 -157 132 -157 354 -388 442 -461 49 -40 68 -51 80 -44 18 10 279 265 300 292 12 16 -63 93 -718 745 -402 401 -731 733 -731 739 0 7 10 14 23 17 41 9 302 77 337 87 33 10 630 156 755 185 33 8 134 32 225 54 166 40 320 77 550 132 69 16 141 34 160 39 49 13 512 126 582 141 33 8 60 20 64 29 3 8 12 89 19 180 31 371 -25 679 -180 995 -77 156 -118 219 -225 348 -161 193 -367 344 -595 439 -60 25 -139 52 -175 61 -36 8 -87 21 -115 27 -61 15 -374 22 -470 10z" fill="white"></path>
        <path d="M3160 2443 c-52 -12 -111 -27 -130 -33 -19 -5 -84 -21 -145 -35 -161 -38 -275 -65 -315 -75 -19 -6 -73 -19 -120 -29 -221 -51 -308 -72 -340 -81 -19 -5 -66 -17 -105 -25 -38 -9 -106 -25 -150 -35 -44 -11 -129 -31 -190 -45 -60 -14 -126 -30 -145 -35 -19 -5 -64 -16 -100 -24 -180 -41 -352 -83 -419 -102 -17 -5 5 -28 530 -550 477 -473 677 -668 689 -672 12 -5 262 295 390 468 103 138 272 399 335 515 79 145 136 262 179 365 26 63 51 124 56 135 5 11 23 65 40 120 18 55 36 111 41 124 6 13 6 27 2 31 -4 3 -51 -4 -103 -17z" fill="white"></path>
      </g>
      <circle cx="178.54" cy="157.76" r="58.3" fill="black"></circle>
    </mask>
  </defs>
  <rect width="100%" height="100%" fill="#FFFFFF" mask="url(#maw17m4)"></rect>
</svg>